<?xml version="1.0" encoding="utf-8"?>
<!-- Generator: Adobe Illustrator 22.1.0, SVG Export Plug-In . SVG Version: 6.00 Build 0)  -->
<svg version="1.1" id="svg-bathrooms" xmlns="http://www.w3.org/2000/svg" xmlns:xlink="http://www.w3.org/1999/xlink" x="0px"
	 y="0px" viewBox="0 0 595.3 841.9" style="enable-background:new 0 0 595.3 841.9;" xml:space="preserve">
<title>svg-bathrooms</title>
<path d="M384.2,684V343.8c0-70.2-57.5-127-128.4-127s-128.4,56.8-128.4,127h20.8c0-58.7,48.2-106.3,107.7-106.3
	s107.7,47.6,107.7,106.3V684H384.2L384.2,684z"/>
<path d="M245.9,411.2H29.5l10.4,10.4v-25.9c0-13.7,10-25.6,23.8-28l75.9-13.6h-3.7l75.9,13.6c13.8,2.5,23.8,14.3,23.8,28v25.9
	L245.9,411.2L245.9,411.2z M245.9,431.9h10.4v-10.4v-25.9c0-23.8-17.2-44.2-40.8-48.5l-75.9-13.6l-1.8-0.3l-1.8,0.3L60,347.2
	c-23.6,4.2-40.8,24.6-40.8,48.5v25.9v10.4h10.4H245.9L245.9,431.9z"/>
<path d="M177.1,489.6c-10.9,0-19.7-8.7-19.7-19.4c0-10.7,8.8-19.4,19.7-19.4c10.9,0,19.7,8.7,19.7,19.4
	C196.7,480.9,187.9,489.6,177.1,489.6"/>
<path d="M137.7,547.9c-10.9,0-19.7-8.7-19.7-19.4s8.8-19.4,19.7-19.4s19.7,8.7,19.7,19.4S148.6,547.9,137.7,547.9"/>
<path d="M98.4,489.6c-10.9,0-19.7-8.7-19.7-19.4c0-10.7,8.8-19.4,19.7-19.4s19.7,8.7,19.7,19.4C118,480.9,109.2,489.6,98.4,489.6"/>
<path d="M216.4,547.9c-10.9,0-19.7-8.7-19.7-19.4s8.8-19.4,19.7-19.4c10.9,0,19.7,8.7,19.7,19.4S227.3,547.9,216.4,547.9"/>
<path d="M59,547.9c-10.9,0-19.7-8.7-19.7-19.4S48.1,509,59,509s19.7,8.7,19.7,19.4S69.9,547.9,59,547.9"/>
<path d="M98.4,606.2c-10.9,0-19.7-8.7-19.7-19.4s8.8-19.4,19.7-19.4S118,576,118,586.8S109.2,606.2,98.4,606.2"/>
<path d="M177.1,606.2c-10.9,0-19.7-8.7-19.7-19.4s8.8-19.4,19.7-19.4c10.9,0,19.7,8.7,19.7,19.4S187.9,606.2,177.1,606.2"/>
<path d="M255.7,606.2c-10.9,0-19.7-8.7-19.7-19.4s8.8-19.4,19.7-19.4s19.7,8.7,19.7,19.4S266.6,606.2,255.7,606.2"/>
<path d="M19.7,606.2C8.8,606.2,0,597.5,0,586.8s8.8-19.4,19.7-19.4s19.7,8.7,19.7,19.4S30.5,606.2,19.7,606.2"/>
</svg>
