<?xml version="1.0" encoding="utf-8"?>
<!-- Generator: Adobe Illustrator 22.1.0, SVG Export Plug-In . SVG Version: 6.00 Build 0)  -->
<svg version="1.1" id="svg-bedrooms" xmlns="http://www.w3.org/2000/svg" xmlns:xlink="http://www.w3.org/1999/xlink" x="0px"
	 y="0px" viewBox="0 0 595.3 841.9" style="enable-background:new 0 0 595.3 841.9;" xml:space="preserve">
<title>svg-bedrooms</title>
<path d="M40.8,653.5L64.7,361l-9.6,11.1c0.8-0.2,2.3-0.5,4.7-1c3.9-0.8,8.6-1.7,13.9-2.7c15.2-2.8,32.7-5.6,52.1-8.3
	c55.5-7.5,115.6-12.1,177.8-12.1s122.2,4.5,177.8,12.1c19.4,2.6,36.9,5.5,52.1,8.3c5.3,1,10,1.9,13.9,2.7c2.3,0.5,3.9,0.8,4.7,1
	l-9.6-11.1l23.9,292.4l24.7-2L567.1,359l-0.7-9.1l-8.9-2c-0.9-0.2-2.6-0.6-5.1-1.1c-4.1-0.8-8.9-1.8-14.4-2.8
	c-15.6-2.9-33.5-5.8-53.3-8.5c-56.6-7.7-117.7-12.3-181.1-12.3s-124.5,4.6-181.1,12.3c-19.8,2.7-37.7,5.6-53.3,8.5
	c-5.5,1-10.3,2-14.4,2.8c-2.5,0.5-4.2,0.9-5.1,1.1l-8.9,2L40,359L16.1,651.4L40.8,653.5L40.8,653.5z"/>
<polygon points="572.7,532 34.4,532 34.4,556.8 572.7,556.8 "/>
<path d="M112.6,348.9l12-134l-8.4,10.6c2-0.7,6.1-1.9,12.3-3.6c10.4-2.8,22.8-5.6,36.8-8.2c40.4-7.5,86.7-12,138.3-12
	s97.9,4.5,138.3,12c14.1,2.6,26.4,5.4,36.8,8.2c6.2,1.6,10.3,2.9,12.3,3.6l-8.4-10.6l12,134l24.7-2.2l-12-134l-0.7-8l-7.6-2.6
	c-2.5-0.8-7.2-2.3-13.9-4.1c-11-2.9-24-5.9-38.7-8.6c-41.8-7.7-89.7-12.4-142.8-12.4s-101,4.6-142.8,12.4
	c-14.7,2.7-27.6,5.6-38.7,8.6c-6.7,1.8-11.4,3.2-13.9,4.1l-7.6,2.6l-0.7,8l-12,134L112.6,348.9L112.6,348.9z"/>
<path d="M232.2,335.7c0-20.1,15.9-36.3,35.4-36.3h71.8c19.5,0,35.4,16.2,35.4,36.3h24.8c0-33.7-26.9-61.1-60.2-61.1h-71.8
	c-33.3,0-60.2,27.4-60.2,61.1H232.2L232.2,335.7z"/>
</svg>
