<?xml version="1.0" encoding="utf-8"?>
<!-- Generator: Adobe Illustrator 22.1.0, SVG Export Plug-In . SVG Version: 6.00 Build 0)  -->
<svg version="1.1" id="svg-house" xmlns="http://www.w3.org/2000/svg" xmlns:xlink="http://www.w3.org/1999/xlink" x="0px" y="0px"
	 viewBox="0 0 595.3 841.9" style="enable-background:new 0 0 595.3 841.9;" xml:space="preserve">
<title>svg-house</title>
<path d="M435.1,681.6H176.7c-45.1,0-81.6-36.1-81.6-80.5V345.7l-4.5,9.5l223.2-185.8H298l223.2,185.8l-4.5-9.5v255.4
	C516.7,645.5,480.2,681.6,435.1,681.6L435.1,681.6z M435.1,706.4c58.7,0,106.4-47.1,106.4-105.3V345.7v-5.8l-4.5-3.7L313.8,150.4
	l-7.9-6.6l-7.9,6.6L74.7,336.2l-4.5,3.7v5.8v255.4c0,58.2,47.7,105.3,106.4,105.3H435.1L435.1,706.4z"/>
<polygon points="259.6,694 259.6,531.5 247.2,543.9 364.7,543.9 352.2,531.5 352.2,694 377.1,694 377.1,531.5 377.1,519.1
	364.7,519.1 247.2,519.1 234.8,519.1 234.8,531.5 234.8,694 "/>
</svg>
