<?xml version="1.0" encoding="utf-8"?>
<!-- Generator: Adobe Illustrator 22.1.0, SVG Export Plug-In . SVG Version: 6.00 Build 0)  -->
<svg version="1.1" id="svg-stay" xmlns="http://www.w3.org/2000/svg" xmlns:xlink="http://www.w3.org/1999/xlink" x="0px" y="0px"
	 viewBox="0 0 595.3 841.9" style="enable-background:new 0 0 595.3 841.9;" xml:space="preserve">
<title>svg-stay</title>
<path d="M504.7,631.1c30-30,52.8-65.9,67.3-105.2l11.6-31.3l-31.3,11.6c-95.4,35.2-203.4,12.7-276.3-60.2
	C203,373,180.6,265.1,215.8,169.7l11.6-31.3L196,149.9c-39.3,14.5-75.3,37.3-105.2,67.3c-114.2,114.2-114.2,299.7,0,413.9
	S390.5,745.3,504.7,631.1L504.7,631.1z M482.9,609.3c-102.2,102.2-268.2,102.2-370.4,0s-102.2-268.2,0-370.4
	c26.8-26.8,58.9-47.2,94.1-60.2L186.9,159c-39.3,106.5-14.2,227.2,67.3,308.7c81.5,81.5,202.2,106.6,308.7,67.3l-19.8-19.8
	C530.1,550.4,509.7,582.6,482.9,609.3L482.9,609.3z"/>
</svg>
