<?xml version="1.0" encoding="utf-8"?>
<!-- Generator: Adobe Illustrator 22.1.0, SVG Export Plug-In . SVG Version: 6.00 Build 0)  -->
<svg version="1.1" id="svg-sleeps" xmlns="http://www.w3.org/2000/svg" xmlns:xlink="http://www.w3.org/1999/xlink" x="0px" y="0px"
	 viewBox="0 0 595.3 841.9" style="enable-background:new 0 0 595.3 841.9;" xml:space="preserve">
<title>svg-sleeps</title>
<path d="M293.1,303.4c2.2-47.9-38.4-86.7-87.7-86.7c-49.4,0-90.4,39.2-87.7,86.8c0.2,4,1.6,12.8,3.9,25.8c0.3,1.4,0.3,1.4,0.5,2.8
	c0.9,5.3,2,10.8,3,16.2c0.6,3.2,1.1,5.7,1.4,7.1c8.1,44.3,37.9,75.8,78.9,75.8c41,0,70.2-31,78.9-75.8c0.3-1.4,0.7-3.8,1.4-7
	c1-5.3,2-10.8,3-16c0.3-1.6,0.3-1.6,0.6-3.1C291.6,316.3,292.9,307.5,293.1,303.4L293.1,303.4z M272.4,302.5
	c-0.1,2.7-1.5,11.3-3.6,23.2c-0.3,1.5-0.3,1.5-0.6,3.1c-0.9,5.2-1.9,10.6-2.9,15.8c-0.6,3.2-1.1,5.6-1.3,6.9
	c-7,35.9-28.7,59-58.5,59c-29.8,0-52-23.6-58.5-58.9c-0.3-1.5-0.8-3.9-1.4-7.1c-1-5.3-2-10.8-2.9-16c-0.3-1.4-0.3-1.4-0.5-2.8
	c-2.1-11.9-3.5-20.6-3.6-23.3c-2-35.2,29-64.9,66.9-64.9C243.3,237.5,274,266.9,272.4,302.5L272.4,302.5z"/>
<path d="M396,604.4H14.8l10.3,11.3l6.5-73.2c2.6-20.3,24.4-37.9,52.4-43.3l122.8-16l-2.7,0l124.7,16.5c31.3,5.5,51.1,21.8,52.6,45.9
	l4.3,69.8L396,604.4L396,604.4z M396,625.1h11l-0.7-11l-4.3-69.8c-2.3-35.3-30-58.1-70.2-65.1l-125.2-16.6l-2.7,0L80.7,478.7
	c-36.6,7-65.8,30.6-69.7,61.6l-6.5,73.6l-1,11.3h11.3H396L396,625.1z"/>
<path d="M494.4,353.8c1.8-39.1-31.6-70.7-72.2-70.7c-40.7,0-74.5,31.9-72.2,70.9c0.2,3.3,1.3,10.2,3.2,20.6c0.2,1.1,0.2,1.1,0.4,2.2
	c0.8,4.2,1.6,8.5,2.4,12.8c0.5,2.6,0.9,4.5,1.1,5.7c6.7,35.9,31.3,61.6,65.2,61.6c33.9,0,58-25.3,65.2-61.6c0.2-1.1,0.6-3,1.1-5.6
	c0.8-4.2,1.6-8.5,2.4-12.7c0.2-1.2,0.2-1.2,0.4-2.5C493.1,364.1,494.2,357.1,494.4,353.8L494.4,353.8z M473.6,352.8
	c-0.1,2-1.2,8.8-2.8,18c-0.2,1.2-0.2,1.2-0.4,2.4c-0.7,4.1-1.5,8.3-2.3,12.5c-0.5,2.5-0.9,4.4-1.1,5.5c-5.4,27.4-22,44.8-44.8,44.8
	c-22.8,0-39.8-17.8-44.8-44.7c-0.2-1.2-0.6-3.1-1.1-5.7c-0.8-4.2-1.6-8.5-2.4-12.6c-0.2-1.1-0.2-1.1-0.4-2.2
	c-1.7-9.3-2.8-16.1-2.9-18.2c-1.5-26.4,22.3-48.9,51.5-48.9C451.3,303.8,474.8,326.1,473.6,352.8L473.6,352.8z"/>
<path d="M420.9,502.7l101.9,12.1c23.3,4.1,38.8,16.8,40.2,35.1l3.5,65.5l10.4-10.9H458.2v20.8h118.7h11l-0.6-10.9l-3.5-65.7
	c-2.3-29.4-25.7-48.5-57.9-54.2L423.3,482L420.9,502.7L420.9,502.7z"/>
</svg>
